<svg width="128" height="117" viewBox="0 0 128 117" fill="none" xmlns="http://www.w3.org/2000/svg">
<path fill-rule="evenodd" clip-rule="evenodd" d="M51.1316 45.3523C51.217 45.3932 51.3036 45.4325 51.3914 45.4703C54.9679 47.0089 59.1145 45.3568 60.6532 41.7803C61.2796 40.3241 61.3771 38.7735 61.0312 37.3429C64.4272 38.9667 65.9623 42.998 64.4615 46.4868C62.9228 50.0633 58.7762 51.7154 55.1997 50.1768C53.0792 49.2646 51.6352 47.4357 51.1316 45.3523Z" fill="url(#paint0_radial_1_1478)"/>
<g opacity="0.67" filter="url(#filter0_f_1_1478)">
<path d="M71.4554 46.7714C75.706 50.6075 85.681 54.6753 81.8449 58.9259C78.0088 63.1765 56.0823 75.3187 46.9528 70.6253C42.7022 66.7892 50.761 54.4374 54.5971 50.1868C58.4333 45.9362 67.2048 42.9352 71.4554 46.7714Z" fill="url(#paint1_linear_1_1478)" fill-opacity="0.3"/>
</g>
<g filter="url(#filter1_ii_1_1478)">
<path fill-rule="evenodd" clip-rule="evenodd" d="M64.8773 63.3372H56.5312C52.3769 63.3372 49.0093 59.9695 49.0093 55.8153C49.0093 51.6611 52.3769 48.2935 56.5312 48.2935H56.9433C58.4015 48.2935 59.7677 48.6868 60.9418 49.3732C62.4681 44.8515 66.7443 41.5959 71.781 41.5959H72.3477C78.3514 41.5959 83.2184 46.4628 83.2184 52.4665C83.2184 58.4702 78.3514 63.3372 72.3477 63.3372L64.8773 63.3372Z" fill="white"/>
</g>
<defs>
<filter id="filter0_f_1_1478" x="0.747314" y="0.00576782" width="126.959" height="116.681" filterUnits="userSpaceOnUse" color-interpolation-filters="sRGB">
<feFlood flood-opacity="0" result="BackgroundImageFix"/>
<feBlend mode="normal" in="SourceGraphic" in2="BackgroundImageFix" result="shape"/>
<feGaussianBlur stdDeviation="22.5" result="effect1_foregroundBlur_1_1478"/>
</filter>
<filter id="filter1_ii_1_1478" x="31.0093" y="26.5959" width="60.209" height="47.7413" filterUnits="userSpaceOnUse" color-interpolation-filters="sRGB">
<feFlood flood-opacity="0" result="BackgroundImageFix"/>
<feBlend mode="normal" in="SourceGraphic" in2="BackgroundImageFix" result="shape"/>
<feColorMatrix in="SourceAlpha" type="matrix" values="0 0 0 0 0 0 0 0 0 0 0 0 0 0 0 0 0 0 127 0" result="hardAlpha"/>
<feOffset dx="8" dy="-15"/>
<feGaussianBlur stdDeviation="15"/>
<feComposite in2="hardAlpha" operator="arithmetic" k2="-1" k3="1"/>
<feColorMatrix type="matrix" values="0 0 0 0 0 0 0 0 0 0 0 0 0 0 0 0 0 0 0.2 0"/>
<feBlend mode="normal" in2="shape" result="effect1_innerShadow_1_1478"/>
<feColorMatrix in="SourceAlpha" type="matrix" values="0 0 0 0 0 0 0 0 0 0 0 0 0 0 0 0 0 0 127 0" result="hardAlpha"/>
<feOffset dx="-18" dy="11"/>
<feGaussianBlur stdDeviation="15"/>
<feComposite in2="hardAlpha" operator="arithmetic" k2="-1" k3="1"/>
<feColorMatrix type="matrix" values="0 0 0 0 1 0 0 0 0 1 0 0 0 0 1 0 0 0 1 0"/>
<feBlend mode="normal" in2="effect1_innerShadow_1_1478" result="effect2_innerShadow_1_1478"/>
</filter>
<radialGradient id="paint0_radial_1_1478" cx="0" cy="0" r="1" gradientUnits="userSpaceOnUse" gradientTransform="translate(60.5 40.5005) rotate(115.641) scale(13.8654 13.6478)">
<stop stop-color="#FFF72C"/>
<stop offset="1" stop-color="#DF7800"/>
</radialGradient>
<linearGradient id="paint1_linear_1_1478" x1="51.467" y1="72.5048" x2="76.1569" y2="44.7962" gradientUnits="userSpaceOnUse">
<stop stop-color="#254659"/>
<stop offset="1" stop-color="#023553"/>
</linearGradient>
</defs>
</svg>
