<svg width="40" height="40" viewBox="0 0 40 40" fill="none" xmlns="http://www.w3.org/2000/svg">
<g filter="url(#filter0_ii_3131_34)">
<g clip-path="url(#clip0_3131_34)">
<g filter="url(#filter1_dii_3131_34)">
<path d="M20 30.864L13.636 24.5C12.3773 23.2413 11.5202 21.6376 11.1729 19.8918C10.8257 18.146 11.0039 16.3364 11.6851 14.6919C12.3663 13.0473 13.5198 11.6417 14.9999 10.6528C16.4799 9.66389 18.22 9.13605 20 9.13605C21.78 9.13605 23.5201 9.66389 25.0001 10.6528C26.4802 11.6417 27.6337 13.0473 28.3149 14.6919C28.9961 16.3364 29.1743 18.146 28.8271 19.8918C28.4798 21.6376 27.6227 23.2413 26.364 24.5L20 30.864ZM24.95 23.086C25.9289 22.107 26.5955 20.8597 26.8656 19.5018C27.1356 18.144 26.9969 16.7366 26.4671 15.4575C25.9373 14.1785 25.04 13.0853 23.8889 12.3161C22.7378 11.547 21.3844 11.1365 20 11.1365C18.6156 11.1365 17.2622 11.547 16.1111 12.3161C14.96 13.0853 14.0628 14.1785 13.5329 15.4575C13.0031 16.7366 12.8644 18.144 13.1345 19.5018C13.4045 20.8597 14.0711 22.107 15.05 23.086L20 28.036L24.95 23.086ZM20 20.136C19.4696 20.136 18.9609 19.9253 18.5858 19.5502C18.2107 19.1751 18 18.6664 18 18.136C18 17.6055 18.2107 17.0968 18.5858 16.7218C18.9609 16.3467 19.4696 16.136 20 16.136C20.5304 16.136 21.0391 16.3467 21.4142 16.7218C21.7893 17.0968 22 17.6055 22 18.136C22 18.6664 21.7893 19.1751 21.4142 19.5502C21.0391 19.9253 20.5304 20.136 20 20.136Z" fill="white"/>
</g>
</g>
</g>
<defs>
<filter id="filter0_ii_3131_34" x="-10" y="-7" width="50" height="50" filterUnits="userSpaceOnUse" color-interpolation-filters="sRGB">
<feFlood flood-opacity="0" result="BackgroundImageFix"/>
<feBlend mode="normal" in="SourceGraphic" in2="BackgroundImageFix" result="shape"/>
<feColorMatrix in="SourceAlpha" type="matrix" values="0 0 0 0 0 0 0 0 0 0 0 0 0 0 0 0 0 0 127 0" result="hardAlpha"/>
<feOffset dx="8" dy="-15"/>
<feGaussianBlur stdDeviation="15"/>
<feComposite in2="hardAlpha" operator="arithmetic" k2="-1" k3="1"/>
<feColorMatrix type="matrix" values="0 0 0 0 0 0 0 0 0 0 0 0 0 0 0 0 0 0 0.2 0"/>
<feBlend mode="normal" in2="shape" result="effect1_innerShadow_3131_34"/>
<feColorMatrix in="SourceAlpha" type="matrix" values="0 0 0 0 0 0 0 0 0 0 0 0 0 0 0 0 0 0 127 0" result="hardAlpha"/>
<feOffset dx="-18" dy="11"/>
<feGaussianBlur stdDeviation="15"/>
<feComposite in2="hardAlpha" operator="arithmetic" k2="-1" k3="1"/>
<feColorMatrix type="matrix" values="0 0 0 0 1 0 0 0 0 1 0 0 0 0 1 0 0 0 1 0"/>
<feBlend mode="normal" in2="effect1_innerShadow_3131_34" result="effect2_innerShadow_3131_34"/>
</filter>
<filter id="filter1_dii_3131_34" x="-47" y="-36.864" width="126" height="129.728" filterUnits="userSpaceOnUse" color-interpolation-filters="sRGB">
<feFlood flood-opacity="0" result="BackgroundImageFix"/>
<feColorMatrix in="SourceAlpha" type="matrix" values="0 0 0 0 0 0 0 0 0 0 0 0 0 0 0 0 0 0 127 0" result="hardAlpha"/>
<feMorphology radius="4" operator="dilate" in="SourceAlpha" result="effect1_dropShadow_3131_34"/>
<feOffset dx="-4" dy="8"/>
<feGaussianBlur stdDeviation="25"/>
<feColorMatrix type="matrix" values="0 0 0 0 0 0 0 0 0 0 0 0 0 0 0 0 0 0 0.1 0"/>
<feBlend mode="normal" in2="BackgroundImageFix" result="effect1_dropShadow_3131_34"/>
<feBlend mode="normal" in="SourceGraphic" in2="effect1_dropShadow_3131_34" result="shape"/>
<feColorMatrix in="SourceAlpha" type="matrix" values="0 0 0 0 0 0 0 0 0 0 0 0 0 0 0 0 0 0 127 0" result="hardAlpha"/>
<feOffset dx="-6" dy="4"/>
<feGaussianBlur stdDeviation="2"/>
<feComposite in2="hardAlpha" operator="arithmetic" k2="-1" k3="1"/>
<feColorMatrix type="matrix" values="0 0 0 0 1 0 0 0 0 1 0 0 0 0 1 0 0 0 0.25 0"/>
<feBlend mode="normal" in2="shape" result="effect2_innerShadow_3131_34"/>
<feColorMatrix in="SourceAlpha" type="matrix" values="0 0 0 0 0 0 0 0 0 0 0 0 0 0 0 0 0 0 127 0" result="hardAlpha"/>
<feOffset dx="2" dy="-3"/>
<feGaussianBlur stdDeviation="3"/>
<feComposite in2="hardAlpha" operator="arithmetic" k2="-1" k3="1"/>
<feColorMatrix type="matrix" values="0 0 0 0 0 0 0 0 0 0 0 0 0 0 0 0 0 0 0.25 0"/>
<feBlend mode="normal" in2="effect2_innerShadow_3131_34" result="effect3_innerShadow_3131_34"/>
</filter>
<clipPath id="clip0_3131_34">
<rect width="24" height="24" fill="white" transform="translate(8 8)"/>
</clipPath>
</defs>
</svg>
