<svg width="40" height="40" viewBox="0 0 40 40" fill="none" xmlns="http://www.w3.org/2000/svg">
<path d="M28 18.875V27.2501H10V18.2811C10 13.2931 14.03 9.25006 19 9.25006C20.8726 9.25006 22.6118 9.82403 24.0522 10.8062C23.639 11.337 23.3305 11.9533 23.1577 12.6241C21.9951 11.7606 20.5569 11.2501 19 11.2501C15.134 11.2501 12 14.3981 12 18.2811V25.2501H26V18.459C26.6125 18.7266 27.2889 18.875 28 18.875Z" fill="white"/>
<path d="M20.7678 30.0178C21.2366 29.549 21.5 28.9131 21.5 28.2501H16.5C16.5 28.9131 16.7634 29.549 17.2322 30.0178C17.7011 30.4867 18.337 30.7501 19 30.7501C19.663 30.7501 20.2989 30.4867 20.7678 30.0178Z" fill="white"/>
<circle cx="28" cy="13.875" r="3" fill="#FF7C7C"/>
</svg>
