<svg width="600" height="375" viewBox="0 0 600 375" fill="none" xmlns="http://www.w3.org/2000/svg">
<path d="M447.155 375H122.042C90.5033 374.976 60.1967 362.763 37.4666 340.919C14.7364 319.074 1.34506 289.291 0.095925 257.804C-1.15321 226.318 9.83671 195.569 30.765 171.995C51.6933 148.421 80.9373 133.85 112.375 131.332C116.858 99.7028 131.153 70.2737 153.25 47.1851C175.346 24.0966 204.131 8.51053 235.555 2.61974C266.979 -3.27106 299.461 0.829871 328.431 14.3456C357.401 27.8613 381.401 50.1116 397.054 77.9661C425.765 68.0362 456.785 66.8759 486.158 74.6334C515.531 82.3909 541.925 98.7145 561.975 121.522C582.024 144.329 594.82 172.587 598.729 202.69C602.638 232.794 597.484 263.378 583.924 290.543C575.966 315.085 560.432 336.478 539.55 351.651C518.667 366.825 493.511 374.999 467.691 375H447.155Z" fill="url(#paint0_linear_3124_10)"/>
<defs>
<linearGradient id="paint0_linear_3124_10" x1="300" y1="0" x2="474.063" y2="421.204" gradientUnits="userSpaceOnUse">
<stop stop-color="#DCEAFD"/>
<stop offset="1" stop-color="#DAE7FC"/>
</linearGradient>
</defs>
</svg>
